<?xml version="1.0" encoding="UTF-8"?>
<svg id="characters" xmlns="http://www.w3.org/2000/svg" xmlns:xlink="http://www.w3.org/1999/xlink" viewBox="0 0 2949.85 1773.31">
  <defs>
    <style>
      .cls-1 {
        fill: #e87c5d;
      }

      .cls-2 {
        fill: #fff;
      }

      .cls-3 {
        fill: #2b7eab;
      }

      .cls-4 {
        fill: #8ddcff;
      }

      .cls-5 {
        fill: #f7a594;
      }

      .cls-6 {
        fill: #aae0ff;
      }

      .cls-7 {
        fill: #80b2ff;
      }

      .cls-8 {
        fill: #61b8ff;
      }

      .cls-9 {
        fill: #a3cfff;
      }

      .cls-10 {
        fill: #d9f3ff;
      }

      .cls-11 {
        fill: #9eddff;
      }

      .cls-12 {
        fill: #1e62cc;
      }

      .cls-13 {
        fill: #66a1ff;
      }

      .cls-14 {
        fill: #1b658f;
      }

      .cls-15 {
        fill: #a65b4a;
      }

      .cls-16 {
        fill: #4a82db;
      }

      .cls-17 {
        fill: #3386ff;
      }

      .cls-18 {
        fill: #1951a6;
      }

      .cls-19 {
        fill: #d13f3f;
      }

      .cls-20 {
        fill: #123e80;
      }

      .cls-21 {
        fill: #6bb2e3;
      }

      .cls-22 {
        fill: #2b2b2b;
      }

      .cls-23 {
        fill: #2997d6;
      }

      .cls-24 {
        fill: #dbf2ff;
      }

      .cls-25 {
        fill: #0e0e0e;
      }

      .cls-26 {
        fill: #bae7ff;
      }

      .cls-27 {
        clip-path: url(#clippath);
      }

      .cls-28 {
        fill: #adadad;
      }

      .cls-29 {
        fill: none;
      }

      .cls-30 {
        fill: #a1d3ff;
      }

      .cls-31 {
        fill: #474747;
      }

      .cls-32 {
        fill: #0d192b;
      }

      .cls-33 {
        fill: #e6836f;
      }

      .cls-34 {
        fill: #2a518c;
      }

      .cls-35 {
        fill: #ffa599;
      }

      .cls-36 {
        fill: #73382a;
      }

      .cls-37 {
        fill: #f7b28a;
      }

      .cls-38 {
        fill: #e64847;
      }

      .cls-39 {
        fill: #425899;
      }

      .cls-40 {
        fill: #69bff0;
      }

      .cls-41 {
        fill: #1e1e1e;
      }

      .cls-42 {
        fill: #d9f1ff;
      }

      .cls-43 {
        fill: #1a56b3;
      }

      .cls-44 {
        fill: #bd4a31;
      }
    </style>
    <clipPath id="clippath">
      <path class="cls-29" d="m868.12,682.95l11.32,101.5s-51.37,96.26-17.5,121.37c33.86,25.11,65.06-1.9,74.19-64.68s-24.73-178.45-54.79-200.9c-30.06-22.45-139.26-20.55-149.91-7.61-10.65,12.94-117.24,251.35-75.25,300.23,41.99,48.88,177.36,4.39,177.36,4.39l-21.94-141.64-59.54-41.99s-3.5-77.04-3.09-75.82c.41,1.22,8.3-37.75,8.3-37.75,37.4-10.81,65.71-12.16,102.61,2.75l8.22,40.15Z"/>
    </clipPath>
  </defs>
  <path class="cls-4" d="m204.06,1760.11c234.38-314.21,82.19-592.78,7.06-965.38C27.02,201.31,743.85-277.71,1460.73,185.92c444.72,287.61,859.94-3.5,1193.49,298.71,265.26,240.34,1.11,747.5-4.62,976.05-4.52,180.16,150.55,299.43,150.55,299.43H204.06Z"/>
  <path id="shadow" d="m2944.63,1771.94H5.22c-2.88,0-5.22-2.34-5.22-5.22h0c0-2.88,2.34-5.22,5.22-5.22h2939.42c2.88,0,5.22,2.34,5.22,5.22h0c0,2.88-2.34,5.22-5.22,5.22Z"/>
  <g id="plant">
    <g>
      <g>
        <path class="cls-21" d="m2489.95,1678.05h0c67.19,0,121.66-54.47,121.66-121.66v-165.85h-243.32v165.85c0,67.19,54.47,121.66,121.66,121.66Z"/>
        <rect class="cls-39" x="2611.61" y="1515.88" width="13.48" height="257.43" transform="translate(5236.69 3289.19) rotate(180)"/>
        <rect class="cls-39" x="2354.8" y="1515.88" width="13.48" height="257.43" transform="translate(4723.09 3289.19) rotate(180)"/>
        <rect class="cls-39" x="2457.99" y="1515.88" width="13.48" height="257.43" transform="translate(4929.47 3289.19) rotate(180)"/>
      </g>
      <rect class="cls-39" x="2489.63" y="1556.08" width="13.48" height="257.43" transform="translate(4181.17 -811.58) rotate(90)"/>
    </g>
    <g>
      <path class="cls-9" d="m2449.47,1077.25c22.73,12.1,4.77,41.82,14.08,69.99,9.31,28.18,46.71,27.49,32.58,77.91-8.7,31.05-39.52,11.59-38.82,51.96.71,40.37,15.99,39.38,4.13,60.14-20.68,36.18-91.18,15.94-91.74-24.46-.56-40.4,33.26-54.15,4.69-72.94-28.57-18.79-40-27.34-21.2-54.21,23.28-33.26,59.37-32.25,49.27-58.21-10.1-25.96,16.93-66.19,46.99-50.19Z"/>
      <path class="cls-39" d="m2437.46,1389.63l-5.92,1.7c-40.23-140.2-2.56-272.21-2.18-273.52l5.91,1.73c-.38,1.3-37.53,131.67,2.19,270.09Z"/>
    </g>
    <g>
      <path class="cls-30" d="m2751.13,1047.83c16.77,30.11-25,50.49-34.99,88.93-9.99,38.44,34.78,49.5-17.71,95.93-32.33,28.6-40.27,12.19-49.53,72.88-8.15,53.43-50.94,5.23-79.35,37.82-36.66,42.05-101.8-42.63-73.09-88.47s65.51-36.3,47.02-78.17c-18.49-41.88-.79-75.08,39.87-91.64,50.32-20.5,71,21.56,78.5-14.97,7.5-36.52,67.09-62.13,89.28-22.31Z"/>
      <path class="cls-39" d="m2510.82,1390.37c55.87-184.6,192.28-304.12,193.65-305.3l-5.39-6.24c-1.39,1.2-139.59,122.29-196.15,309.15l7.89,2.39Z"/>
    </g>
  </g>
  <g id="doctor">
    <g>
      <path class="cls-8" d="m439.18,589.38c2.5,15.15,10.92,28.89,22.48,38.8,11.56,9.91,26.31,16.08,41.46,16.08h142.15c20.03,0,35.78-10.76,42.71-26.79,3.55-8.22,4.79-17.81,3.1-28.08-2.5-15.15-10.92-28.89-22.44-38.8-11.6-9.91-26.31-16.08-41.46-16.08h-142.15c-7.01,0-13.5,1.33-19.26,3.71-19.18,7.98-30.42,27.88-26.59,51.17Z"/>
      <path class="cls-20" d="m638.08,699.43h0c5.44,0,9.31-5.31,7.64-10.49l-19.09-59.24c-1.07-3.32-4.16-5.56-7.64-5.56h0c-5.44,0-9.31,5.31-7.64,10.49l19.09,59.24c1.07,3.32,4.16,5.56,7.64,5.56Z"/>
      <path class="cls-20" d="m543.94,699.43h0c5.44,0,9.31-5.31,7.64-10.49l-19.09-59.24c-1.07-3.32-4.15-5.56-7.64-5.56h0c-5.44,0-9.31,5.31-7.64,10.49l19.09,59.24c1.07,3.32,4.15,5.56,7.64,5.56Z"/>
      <path class="cls-11" d="m462.71,566.22c2.5,15.15,10.92,28.89,22.48,38.84,11.56,9.91,26.31,16.08,41.46,16.08h142.15c6.97,0,13.42-1.29,19.18-3.67,3.55-8.22,4.79-17.81,3.1-28.08-2.5-15.15-10.92-28.89-22.44-38.8-11.6-9.91-26.31-16.08-41.46-16.08h-142.15c-7.01,0-13.5,1.33-19.26,3.71-3.51,8.22-4.75,17.77-3.06,28Z"/>
    </g>
    <g>
      <g>
        <g>
          <rect class="cls-32" x="1042.44" y="1684.79" width="26.79" height="49.86"/>
          <rect class="cls-32" x="841.54" y="1684.79" width="26.79" height="49.86"/>
          <rect class="cls-32" x="617" y="1684.79" width="26.79" height="49.86"/>
          <g>
            <g>
              <ellipse class="cls-32" cx="637.04" cy="1734.49" rx="20.43" ry="32.3"/>
              <ellipse class="cls-32" cx="656.84" cy="1734.49" rx="20.43" ry="32.3"/>
              <path class="cls-32" d="m664.72,1764.18c-8.5,6.63-32.26,3.63-35.58.2l-.15-59.59c6.38-5.58,28.87-5.39,35.72-.31v59.7Z"/>
              <ellipse class="cls-12" cx="658.77" cy="1733.61" rx="14" ry="22.14"/>
            </g>
            <ellipse class="cls-32" cx="657.29" cy="1734.25" rx="8.53" ry="13.49"/>
          </g>
          <g>
            <g>
              <ellipse class="cls-32" cx="850.9" cy="1734.49" rx="20.43" ry="32.3"/>
              <ellipse class="cls-32" cx="831.1" cy="1734.49" rx="20.43" ry="32.3"/>
              <path class="cls-32" d="m823.22,1764.18c8.5,6.63,32.26,3.63,35.58.2l.15-59.59c-6.38-5.58-28.87-5.39-35.72-.31v59.7Z"/>
              <ellipse class="cls-12" cx="829.17" cy="1733.61" rx="14" ry="22.14"/>
            </g>
            <ellipse class="cls-32" cx="830.65" cy="1734.25" rx="8.53" ry="13.49"/>
          </g>
          <g>
            <g>
              <ellipse class="cls-32" cx="1054.95" cy="1734.49" rx="20.43" ry="32.3"/>
              <ellipse class="cls-32" cx="1035.15" cy="1734.49" rx="20.43" ry="32.3"/>
              <path class="cls-32" d="m1027.27,1764.18c8.5,6.63,32.26,3.63,35.58.2l.15-59.59c-6.38-5.58-28.87-5.39-35.72-.31v59.7Z"/>
              <ellipse class="cls-12" cx="1033.22" cy="1733.61" rx="14" ry="22.14"/>
            </g>
            <ellipse class="cls-32" cx="1034.71" cy="1734.25" rx="8.53" ry="13.49"/>
          </g>
          <rect class="cls-32" x="839.37" y="1269.79" width="39.02" height="406.4"/>
          <path class="cls-43" d="m1087.81,1689.7c.05-.34.31-.66.31-1,0-21.51-106.37-38.95-237.58-38.95s-237.58,17.44-237.58,38.95c0,.34.26.66.31,1h474.55Z"/>
          <rect class="cls-43" x="826.47" y="1313.06" width="63.43" height="77.36" transform="translate(1716.36 2703.48) rotate(180)"/>
          <rect class="cls-43" x="826.47" y="1585.34" width="63.43" height="77.36" transform="translate(1716.36 3248.04) rotate(180)"/>
        </g>
        <g>
          <path class="cls-16" d="m739.7,662.85v.08c-.84-.08-1.68-.08-2.52-.08h2.52Z"/>
          <path class="cls-11" d="m438.74,701.25c0,3.86.46,7.84,1.43,11.95l131.48,508.19c.59,2.47,1.3,4.9,2.22,7.29,9.73,38.73,45.02,65.65,85.05,64.56l137.45-3.56h270.88c16.39,0,31.15-6.41,41.84-16.77,10.73-10.35,17.4-24.65,17.4-40.45,0-5.62-.88-10.98-2.56-16.01-7.59-23.18-31.4-39.03-58.27-39.03,0,0-121.82,3.31-157.32-30.81-35.55-34.16-115.63-431.1-115.63-431.1-6.79-28.21-35.34-51.27-64.56-52.57-.88-.08-1.76-.08-2.6-.08,0,0-183.9-1.63-240.28-1.38-4.28,0-7.84.04-10.52.08-2.47.04-4.02.08-4.57.12-.13.04-.17.04-.17.04-19.03,4.19-31.27,19.7-31.27,39.53Zm172.94,474.03h3.44l1.55,6.75-2.18-2.93-2.81-3.81Z"/>
        </g>
        <path class="cls-43" d="m624.61,1289.86c-.05.25-.29.5-.29.75,0,16.17,101.42,29.28,226.52,29.28s226.52-13.11,226.52-29.28c0-.25-.24-.5-.29-.75h-452.46Z"/>
      </g>
      <path class="cls-8" d="m438.74,701.25c0,3.86.46,7.84,1.43,11.95l131.48,508.19c.59,2.47,1.3,4.9,2.22,7.29,9.73,38.73,45.02,65.65,85.05,64.56l137.45-3.56h270.88c16.39,0,31.15-6.41,41.84-16.77,10.73-10.35,17.4-24.65,17.4-40.45,0-5.62-.88-10.98-2.56-16.01-15.51,40.35-468.27,43.19-499.75-9.06-30.77-26.7-96.61-481.48-138.91-545.91-4.28,0-7.84.04-10.52.08-2.47.04-4.02.08-4.57.12-.13.04-.17.04-.17.04-19.03,4.19-31.27,19.7-31.27,39.53Z"/>
    </g>
    <g>
      <path class="cls-6" d="m667.32,726.58c41.82-31.16,185.34-55.36,277.19-12.3,14.59,13.82,35.59,63.99,48.71,111.14l36.29,393.58h-310.52l-51.67-492.42Z"/>
      <path class="cls-5" d="m833.81,744.84c-49.37,7.18-80.07-27.27-87.29-41.68l19.87-123.35,40.17,17.93c16.42,1.36,32.83,5.29,46.94,10.87l12.74,65.78,2.81,14.27c6.41,14.04,14.13,48.99-35.24,56.18Z"/>
      <path class="cls-33" d="m779.24,611.14c1.61,15.26,21.69,77.11,88.35,70.68l-12.37-64.34-75.98-6.34Z"/>
      <g>
        <g>
          <g>
            <path class="cls-5" d="m934.42,534.07c-2.28,20.05-7.84,63.86-15.57,82.19-11.76,27.9-48.15,50.49-71.91,46.65-26.8-6.52-58.95-27.06-72.14-50.83-6.17-16.67-16.21-54.56-16.53-84.7-.67-62.86,53.72-98.28,105.51-92.41s77.76,36.6,70.64,99.1Z"/>
            <path class="cls-36" d="m762.23,570.07c-4.03-21.99,12.41-24.6,22.64-5.05,2.23-14.75.57-60.84,19.25-69.42,21.24-10.11,88.38,20.9,139.29-5.03,0,0-6.58-70.73-110.49-66.51-122.25,18.77-70.69,146.01-70.69,146.01Z"/>
            <ellipse class="cls-5" cx="763.26" cy="563.31" rx="18.75" ry="24.29" transform="translate(-133.08 252.72) rotate(-17.32)"/>
          </g>
          <g>
            <path class="cls-15" d="m895.28,617.81c-3.98.73-10.99,4.05-17.92,7.72-10.05,5.33-19.91,11.41-19.91,11.41,0,0-29.75-17.99-28.93-46.86.4.44.81.87,1.23,1.3,23.11,23.82,65.53,26.44,65.53,26.44Z"/>
            <path class="cls-2" d="m895.28,617.81c-3.98.73-10.99,4.05-17.92,7.72-30.16-6.91-42.56-23.12-47.61-34.15,23.11,23.82,65.53,26.44,65.53,26.44Z"/>
            <path class="cls-15" d="m893.69,603.82c-6.04-.37-10.76-3.88-10.83-3.93-.54-.41-.65-1.18-.24-1.72.41-.54,1.18-.65,1.72-.24.4.3,9.84,7.28,18.4.67,4.7-3.63,3.48-6.06.2-12.55-3.1-6.15-7.8-15.45-9.42-31.26-.07-.68.42-1.28,1.1-1.35.67-.07,1.28.42,1.35,1.1,1.58,15.36,6.15,24.41,9.17,30.4,3.38,6.69,5.41,10.73-.9,15.6-3.56,2.74-7.26,3.48-10.56,3.27Z"/>
            <g>
              <path class="cls-41" d="m860.88,543.15c-.28,4.63-2.58,8.25-5.13,8.09-2.55-.16-4.39-4.03-4.1-8.66s2.58-8.25,5.13-8.09c2.55.16,4.39,4.04,4.1,8.66Z"/>
              <path class="cls-41" d="m925.57,546.18c-.26,4.21-2.35,7.52-4.67,7.37-2.32-.14-3.99-3.68-3.73-7.89s2.35-7.52,4.67-7.37c2.32.14,3.99,3.68,3.73,7.89Z"/>
            </g>
          </g>
        </g>
        <path class="cls-36" d="m930.25,493.87s50.98-4.97,35.05-54.71c-15.79,16.06-31.85,8.21-31.85,8.21,0,0,18.73-23.47-12.24-57.83-4.94,21.43-47.47,30.86-71.81,24.54-38.55-10-77.57,3.8-81.71,41,0,0-25.23,6.15-16.44,56.29,38.95-1.37,56.19-36.88,84.92-42.03,28.73-5.14,53.17,30.31,94.08,24.52Z"/>
        <path class="cls-15" d="m881.02,655.16s-18.19,4.27-28.19,4.03c-13.2-.31-34.07-7.62-34.07-7.62l34.65,18.53,27.62-14.95Z"/>
      </g>
      <polygon class="cls-18" points="847.16 745.9 842.25 763.57 877.23 982.75 858.76 1018.36 825.83 983.02 831.27 763.84 823.33 752.14 832.61 738.85 847.16 745.9"/>
      <path class="cls-8" d="m868.12,682.18c-.68,26.03-21,40.81-35.57,55.64-43.21-11.28-75.98-37.75-85.56-62.27l-20.38,20.24c3.63,31.65,28.99,64.36,67.55,97.73,5.88-16.98,14.91-32.59,40.6-46.63l57.82,16.46c3.27-22.49,5.82-43.45-7.32-69.88l-17.13-11.28Z"/>
    </g>
    <path class="cls-36" d="m1188.33,1764.29c20.64,0,20.64-33.56,0-33.56,0,0-82.13-22.92-84.52-22.92s-90.1,2.46-90.1,2.46c-11.58,16.07-7.72,38.75-6.5,56.21l181.12-2.18Z"/>
    <path class="cls-36" d="m720.95,1764.94c-1.52-17.38-3.99-35.9,8.01-51.7,20.45-7.52,59.12-24.9,98.95-2.43,0,0,.77,11.23,31.66,24,7.68,8.72,10.77,17.5,7.27,30.13h-145.89Z"/>
    <path class="cls-32" d="m1010.41,1707.8l86.63-445.31-255.73-43.35v-122.1s199.57.14,196.8.14c-8.77,0,187.62-13.57,215.13,93.05,27.51,106.62-139.24,516.26-139.24,516.26-23.82-3.27-78.68,13.25-99.14,19.67-17.49,5.49-22.29-4.46-4.45-18.36Z"/>
    <path class="cls-32" d="m994.64,1097.18l-192.75,157.37,15.9,455.37c-50.85-28.05-106.56,25.43-110.84,19.28,0,0-6.16-2.95,4.07-27.32-19.5-98.03-90.58-465.47-68.45-506.33,25.57-47.2,68.46-101.14,68.46-101.14l283.6,2.77Z"/>
    <path class="cls-2" d="m731.87,690.67c2.95,11.8,37.8,361.69,34.85,414.8-2.95,53.11-132.33,64.78-129.81,174.07,2.67,116.08,6.18,166.37,6.18,166.37-47.95-7.02-73.68-63.15-80.7-101.75-11.01-67.01-3.13-143.19,46.78-239.75,0,0,13.33-365.33,29.94-377.16,29.64-21.09,92.76-36.58,92.76-36.58Z"/>
    <path class="cls-42" d="m705.88,847.82s-16.6,48.46-16.6,68.54,97.19,62.27,97.19,62.27h-158.77v-75.13l78.18-55.69Z"/>
    <g>
      <path class="cls-37" d="m794.04,993.67s19.05-17.21,49.25-19.6c30.2-2.4,56.69,55.08,56.69,55.08h-104.51l-1.44-35.48Z"/>
      <path class="cls-37" d="m851.32,974.78s47.53,13.44,54.16,15.2c3.1,12.54-29.61,7.13-44.74,1.55-16.67-6.14-9.42-16.76-9.42-16.76Z"/>
    </g>
    <path class="cls-2" d="m642.83,723.6c-29.03,18-109.02,206.62-109.78,257.38-.34,22.39,9.05,44.57,51.57,47.3,23.48,1.51,222.79,3.22,222.79,3.22l-2.54-52.87-150.23-42.88,45.89-76.15c54.89-28.25,7.88-171.02-57.7-135.99Z"/>
    <g>
      <g>
        <path class="cls-5" d="m1158.8,722.77s-18.4-45.02-16.14-57.29,47.51-28.12,49.75-22.68c2.24,5.45,6.94,18.88-22.68,26.96,19.85,18.29,42.13,54.74-10.93,53Z"/>
        <g>
          <path class="cls-5" d="m1156.4,724.81s-3.76-40.6,2.83-56.94c8.77-21.76,34.68-35.75,34.68-35.75,0,0,45.82,35.96,47.22,42.46,1.4,6.5-36.77,46.32-36.77,46.32,0,0-28.44,27.01-47.96,3.91Z"/>
          <path class="cls-5" d="m1161.83,671.55s11.2-101.3,27.17-98.36c7.36,1.36-3,98.09-3,98.09l-24.16.27Z"/>
          <path class="cls-33" d="m1153.65,710c.1.03.22.03.33-.01.28-.1.43-.41.33-.69-4.72-13.25-12.44-36.54-11.12-43.71,1.74-9.46,31.38-21.9,44.16-23.23,3.81-.4,4.45.4,4.55.66,1.48,3.59,2.68,7.89.41,12.51-2.84,5.76-10.49,10.38-22.73,13.72l-.95.26.72.66c8.24,7.59,18.09,19.54,21.02,30.29.08.29.38.46.67.38.29-.08.46-.38.38-.67-2.9-10.66-12.42-22.43-20.62-30.14,12.01-3.41,19.57-8.13,22.48-14.03,2.8-5.68.57-11.09-.37-13.4-.51-1.24-2.36-1.67-5.67-1.33-12.96,1.35-43.24,13.89-45.12,24.11-1.37,7.42,6.41,30.93,11.17,44.28.06.17.2.29.36.34Z"/>
          <path class="cls-33" d="m1208.73,690.77c.15.04.31.08.46.12l.37.09.2-.33c6.5-10.26,22.02-14.4,22.18-14.44.29-.08.47-.37.39-.66-.07-.29-.37-.47-.66-.39-.65.17-15.76,4.2-22.61,14.58-.02,0-.03,0-.05-.01-9.74-2.8-23.42-25.83-23.56-26.07-.15-.26-.48-.34-.74-.19-.26.15-.34.49-.19.74.58.98,14.05,23.63,24.21,26.56Z"/>
        </g>
      </g>
      <polygon class="cls-5" points="1158.17 711.79 1141.58 775.03 1192.72 791.44 1198.99 719.23 1158.17 711.79"/>
    </g>
    <path class="cls-2" d="m1001.42,742.77l104.57,105.05,46.52-120.79,60.86,19.16s-.74,176.52-53.55,214.54c-80.87,49.4-219.44-101.34-219.44-101.34-54.19-75.79,28.62-160.58,61.04-116.62Z"/>
    <path class="cls-2" d="m885.89,695.03s27.94,383.78,78.09,416.23c50.16,32.45,227.4,10.35,227.4,10.35,0,0-176.84-63.36-179.79-110.56-2.95-47.21-14.37-272.21-14.37-272.21-16.42-20.16-68.53-44.04-111.33-43.81Z"/>
    <g class="cls-27">
      <g>
        <ellipse class="cls-14" cx="893.48" cy="875.08" rx="30.04" ry="16.93" transform="translate(-129.24 1594.89) rotate(-79.54)"/>
        <path class="cls-23" d="m894.19,874.11c-1.96,10.63,1.31,20.14,7.3,21.25,5.99,1.11,12.44-6.61,14.4-17.24s-1.31-20.14-7.3-21.25c-5.99-1.11-12.44,6.61-14.4,17.24Z"/>
        <path class="cls-32" d="m900.57,853.08c1.39,0,2.54-1.11,2.58-2.51.02-.59,1.46-59.55-7.29-121.28-8.11-57.15-55.71-84.82-96.5-86.34-39.55-1.48-70.05,20.14-77.69,55.05-6.87,31.43,2.03,85.04,2.41,87.31.24,1.4,1.56,2.36,2.97,2.11,1.4-.24,2.35-1.57,2.11-2.97-.09-.55-9.12-54.9-2.46-85.35,7.08-32.36,35.55-52.37,72.45-51,38.72,1.44,83.9,27.69,91.59,81.91,8.69,61.29,7.26,119.84,7.25,120.42-.04,1.42,1.09,2.61,2.51,2.65.02,0,.05,0,.07,0Z"/>
        <path class="cls-32" d="m701.82,932.91l16.37-2.1c1.41-.18,2.41-1.47,2.23-2.89-.18-1.41-1.48-2.41-2.89-2.23l-12.39,1.59c-16.82-43.55-17.79-90.33-2.23-114.32,7.67-11.83,18.99-18.15,33.65-18.76,13.74-.59,25.84,3.96,36,13.49,30.92,29,35.9,95.9,36.62,110.26l-9.38-.36c-1.39-.1-2.62,1.05-2.67,2.48-.05,1.42,1.05,2.62,2.48,2.67l14.9.57-.06-2.74c-.07-3.36-2.21-82.73-38.35-116.64-11.21-10.51-24.58-15.53-39.75-14.88-16.42.69-29.12,7.79-37.76,21.11-8.65,13.34-12.73,32.56-11.81,55.57.84,21.05,5.93,44.25,14.3,65.33l.74,1.86Z"/>
        <path class="cls-14" d="m746.65,785.64l-.14,12.72s-14.44-5.72-28.86,3.62c-3.69-5.1-6.29-8.94-6.29-8.94,0,0,11.54-12.49,35.3-7.4Z"/>
        <path class="cls-14" d="m735.83,790.12l-2.78-14.48c-4.03-2.2-12.67.14-13.99,3.28l3.2,14.09,13.57-2.89Z"/>
      </g>
    </g>
    <path class="cls-3" d="m942.85,978.96c16.8-1.71,52.12-23.66,60.55-30.92l102.59,82.96h-158.95l-4.19-52.04Z"/>
    <path class="cls-40" d="m1090.99,1031.25c-4.31,0-132.77-78.37-132.77-78.37-28.24,23.35-57.78,34.71-87.65,43.1,8.73,17.34,21.51,29.02,35.76,35.52l184.66-.26Z"/>
    <g>
      <rect class="cls-26" x="452.07" y="1006.31" width="158.5" height="24.63" transform="translate(1062.64 2037.26) rotate(180)"/>
      <rect class="cls-40" x="317.14" y="1006.31" width="134.94" height="24.63" transform="translate(769.21 2037.26) rotate(180)"/>
      <polygon class="cls-40" points="589.15 1014.35 462.25 1014.35 521.15 1026.13 589.15 1014.35"/>
    </g>
  </g>
  <g id="table">
    <g>
      <rect class="cls-18" x="501" y="1061.17" width="26.63" height="698.42"/>
      <rect class="cls-18" x="501" y="1061.45" width="26.63" height="59.96"/>
      <rect class="cls-18" x="1707.05" y="1641.25" width="26.64" height="121.26" transform="translate(3440.73 3403.75) rotate(180)"/>
      <rect class="cls-18" x="1546.75" y="1641.25" width="26.64" height="121.26" transform="translate(3120.13 3403.75) rotate(180)"/>
      <polygon class="cls-18" points="275.79 1053.7 275.79 1763.49 250.46 1759.48 250.46 1053.7 275.79 1053.7"/>
      <rect class="cls-18" x="1212.84" y="1641.25" width="26.64" height="121.26" transform="translate(2452.32 3403.75) rotate(180)"/>
      <rect class="cls-18" x="1352.68" y="1641.25" width="26.64" height="121.26" transform="translate(2732 3403.75) rotate(180)"/>
      <g>
        <rect class="cls-18" x="177.63" y="1031.11" width="1285.87" height="30.01" transform="translate(1641.13 2092.22) rotate(180)"/>
        <g>
          <rect class="cls-18" x="1203.12" y="1058.54" width="164.59" height="584.62"/>
          <g>
            <rect class="cls-18" x="1344.86" y="1058.54" width="404.89" height="584.62"/>
            <rect class="cls-17" x="1365" y="1078.83" width="373.74" height="564.34"/>
          </g>
        </g>
        <rect class="cls-13" x="464.46" y="1031.11" width="1285.87" height="30.01" transform="translate(2214.79 2092.22) rotate(180)"/>
      </g>
    </g>
    <g>
      <g>
        <polygon class="cls-28" points="1523.76 1031.11 1594.71 1031.11 1580.72 909.8 1509.78 909.8 1523.76 1031.11"/>
        <polygon class="cls-31" points="1503.12 909.8 1503.17 910.29 1510.73 975.82 1517.11 1031.1 1588.06 1031.1 1575.06 918.32 1575.01 917.98 1574.07 909.8 1503.12 909.8"/>
        <rect class="cls-28" x="1420.65" y="1018.45" width="225.35" height="12.42" transform="translate(3066.64 2049.33) rotate(180)"/>
        <rect class="cls-31" x="1404.91" y="1018.45" width="180.34" height="12.42"/>
        <polygon class="cls-22" points="1503.17 910.29 1510.73 975.82 1575.06 918.32 1575.39 918.02 1575.01 917.98 1503.17 910.29"/>
        <g>
          <path class="cls-28" d="m1322.44,917.6h384.96c8.39,0,15.74-6.8,16.43-15.18l21.99-267.39c.69-8.39-5.55-15.18-13.93-15.18h-384.96c-8.39,0-15.74,6.8-16.43,15.18l-21.99,267.39c-.69,8.39,5.55,15.18,13.93,15.18Z"/>
          <path class="cls-31" d="m1315.31,917.26h384.96c8.39,0,15.74-6.8,16.43-15.18l21.99-267.39c.69-8.39-5.55-15.18-13.93-15.18h-384.96c-8.39,0-15.74,6.8-16.43,15.18l-21.99,267.39c-.69,8.39,5.55,15.18,13.93,15.18Z"/>
          <polygon class="cls-10" points="1323.76 895.39 1697.54 895.39 1717.91 640.36 1344.13 640.36 1323.76 895.39"/>
        </g>
      </g>
      <g>
        <rect class="cls-28" x="1236.42" y="1018.45" width="117.83" height="12.43"/>
        <polygon class="cls-31" points="1113.16 1026.1 1113.16 1030.88 1236.42 1030.88 1236.42 1018.45 1113.16 1026.1"/>
      </g>
    </g>
    <g>
      <g>
        <path class="cls-7" d="m1389.86,851.22l256.29-3.1c10.77-.13,20.16-9.25,20.97-20.37l9.55-131.16c.81-11.12-7.27-20.03-18.04-19.9l-256.29,3.1c-10.77.13-20.16,9.25-20.97,20.37l-9.55,131.16c-.81,11.12,7.27,20.03,18.04,19.9Z"/>
        <path class="cls-10" d="m1412.03,734.27l75.27-.91c2.37-.03,4.44-2.04,4.62-4.48h0c.18-2.45-1.6-4.41-3.97-4.38l-75.27.91c-2.37.03-4.44,2.04-4.62,4.48h0c-.18,2.45,1.6,4.41,3.97,4.38Z"/>
        <path class="cls-10" d="m1410.27,758.48l100.28-1.21c2.37-.03,4.44-2.04,4.62-4.48h0c.18-2.45-1.6-4.41-3.97-4.38l-100.28,1.21c-2.37.03-4.44,2.04-4.62,4.48h0c-.18,2.45,1.6,4.41,3.97,4.38Z"/>
        <path class="cls-10" d="m1408.19,787l100.28-1.21c2.37-.03,4.44-2.04,4.62-4.48h0c.18-2.45-1.6-4.41-3.97-4.38l-100.28,1.21c-2.37.03-4.44,2.04-4.62,4.48h0c-.18,2.45,1.6,4.41,3.97,4.38Z"/>
        <path class="cls-10" d="m1406.12,815.51l100.28-1.21c2.37-.03,4.44-2.04,4.62-4.48h0c.18-2.45-1.6-4.41-3.97-4.38l-100.28,1.21c-2.37.03-4.44,2.04-4.62,4.48h0c-.18,2.45,1.6,4.41,3.97,4.38Z"/>
      </g>
      <g>
        <path class="cls-10" d="m1601.85,736.06c-7.78,6.7-13.25,55.12-3.15,68.71,4.63,6.22,12.61,6.29,19.54,8.04,8.21,2.07,14.81,11.25,18.22,6.89,6.29-8.04,7.82-40.35-2.65-61.25-3.64-7.27-24.18-29.09-31.96-22.39Z"/>
        <path class="cls-10" d="m1569.43,736.06c7.78,6.7,13.25,55.12,3.15,68.71-4.63,6.22-12.61,6.29-19.54,8.04-8.21,2.07-14.81,11.25-18.22,6.89-6.29-8.04-7.82-40.35,2.65-61.25,3.64-7.27,24.18-29.09,31.96-22.39Z"/>
        <path class="cls-10" d="m1581.43,754.6v-51.27h7.27v50.51h0c0,.42.22,10.31,10.24,12.52l-1.21,5.49c-6.66-1.47-10.5-5.5-12.56-9.64-2.02,4.27-5.89,8.51-12.75,10.02l-1.21-5.49c9.05-2,10.1-10.26,10.22-12.15Z"/>
      </g>
    </g>
  </g>
  <g id="lady">
    <g>
      <g>
        <g>
          <rect class="cls-32" x="1764.97" y="1675.23" width="26.79" height="49.86" transform="translate(3556.74 3400.32) rotate(180)"/>
          <rect class="cls-32" x="1965.87" y="1675.23" width="26.79" height="49.86" transform="translate(3958.53 3400.32) rotate(180)"/>
          <rect class="cls-32" x="2190.42" y="1675.23" width="26.79" height="49.86" transform="translate(4407.62 3400.32) rotate(180)"/>
          <g>
            <g>
              <ellipse class="cls-32" cx="2197.16" cy="1724.93" rx="20.43" ry="32.3"/>
              <ellipse class="cls-32" cx="2177.36" cy="1724.93" rx="20.43" ry="32.3"/>
              <path class="cls-32" d="m2169.49,1754.62c8.5,6.63,32.26,3.63,35.58.2l.15-59.59c-6.38-5.58-28.87-5.39-35.72-.31v59.7Z"/>
              <ellipse class="cls-12" cx="2175.44" cy="1724.06" rx="14" ry="22.14"/>
            </g>
            <ellipse class="cls-32" cx="2176.92" cy="1724.69" rx="8.53" ry="13.49"/>
          </g>
          <g>
            <g>
              <ellipse class="cls-32" cx="1983.3" cy="1724.93" rx="20.43" ry="32.3"/>
              <ellipse class="cls-32" cx="2003.1" cy="1724.93" rx="20.43" ry="32.3"/>
              <path class="cls-32" d="m2010.98,1754.62c-8.5,6.63-32.26,3.63-35.58.2l-.15-59.59c6.38-5.58,28.87-5.39,35.72-.31v59.7Z"/>
              <ellipse class="cls-12" cx="2005.03" cy="1724.06" rx="14" ry="22.14"/>
            </g>
            <ellipse class="cls-32" cx="2003.55" cy="1724.69" rx="8.53" ry="13.49"/>
          </g>
          <g>
            <g>
              <ellipse class="cls-32" cx="1779.25" cy="1724.93" rx="20.43" ry="32.3"/>
              <ellipse class="cls-32" cx="1799.05" cy="1724.93" rx="20.43" ry="32.3"/>
              <path class="cls-32" d="m1806.93,1754.62c-8.5,6.63-32.26,3.63-35.58.2l-.15-59.59c6.38-5.58,28.87-5.39,35.72-.31v59.7Z"/>
              <ellipse class="cls-12" cx="1800.98" cy="1724.06" rx="14" ry="22.14"/>
            </g>
            <ellipse class="cls-32" cx="1799.5" cy="1724.69" rx="8.53" ry="13.49"/>
          </g>
          <rect class="cls-32" x="1955.81" y="1260.23" width="39.02" height="406.4" transform="translate(3950.64 2926.86) rotate(180)"/>
          <path class="cls-43" d="m1746.39,1680.14c-.05-.34-.31-.66-.31-1,0-21.51,106.37-38.95,237.58-38.95s237.58,17.44,237.58,38.95c0,.34-.26.66-.31,1h-474.55Z"/>
          <rect class="cls-43" x="1944.31" y="1303.51" width="63.43" height="77.36"/>
          <rect class="cls-43" x="1944.31" y="1575.79" width="63.43" height="77.36"/>
        </g>
        <g>
          <path class="cls-16" d="m2094.51,653.3v.08c.84-.08,1.68-.08,2.52-.08h-2.52Z"/>
          <path class="cls-11" d="m2364.19,652.17s-.04,0-.17-.04c-.54-.04-2.1-.08-4.57-.12-2.68-.04-6.25-.08-10.52-.08-56.38-.25-240.28,1.38-240.28,1.38-.84,0-1.72,0-2.6.08-29.22,1.3-57.76,24.36-64.56,52.57,0,0-80.09,396.93-115.63,431.1-35.51,34.12-157.32,30.81-157.32,30.81-26.87,0-50.68,15.85-58.27,39.03-1.68,5.03-2.56,10.4-2.56,16.01,0,15.8,6.67,30.1,17.4,40.45,10.69,10.35,25.45,16.77,41.84,16.77h270.88l175.84,3.56c40.03,1.09,75.33-25.82,85.05-64.56.92-2.39,1.63-4.82,2.22-7.29l93.09-508.19c.96-4.11,1.43-8.09,1.43-11.95,0-19.83-12.24-35.34-31.27-39.53Zm-106.09,517.37l-2.18,2.93,1.55-6.75h3.44l-2.81,3.81Z"/>
        </g>
        <path class="cls-43" d="m2247.98,1280.31c.05.25.29.5.29.75,0,16.17-139.81,29.28-264.91,29.28s-226.52-13.11-226.52-29.28c0-.25.24-.5.29-.75h490.85Z"/>
      </g>
      <path class="cls-8" d="m2395.46,691.7c0,3.86-.46,7.84-1.43,11.95-3.51,10.17-90.45,506.03-95.31,515.47-9.73,38.75-45.02,65.66-85.06,64.57-104.1-3.36-340.6-4.2-446.73-3.56-37.83.78-68.66-36.87-56.67-73.23-13.06,61.65,494.95,69.2,548.15-11.59,37.84-28.32,16.92-566.39,105.76-543.13,19.04,4.2,31.28,19.71,31.28,39.53Z"/>
    </g>
    <g>
      <path class="cls-25" d="m2118.61,643.05c49.83,350.84-283.05,300.12-273.41,158.9,8.3-121.66,81.92-135.89,62.74-215.66-21.06-87.56,10.11-164.17,93.12-164.17s129.93,59.23,112.57,162.23c-3.44,20.43,2.87,41.77,4.99,58.7Z"/>
      <path class="cls-35" d="m1806.65,1625.25c.61,3.48,12.12,70.74,12.12,70.74l46.27-3.97,6.71-82.42-65.09,15.65Z"/>
      <path class="cls-32" d="m2101.03,1066.76s38.71,108.77-25.28,127.41c-63.99,18.64-171.04,25.71-171.04,25.71l-34.57,430.28c-12.81,5.1-26.55,9.64-58.52,3.12,0,0-78.76-433.14-56.04-485.06,22.72-51.93,200.42-104.72,200.42-104.72l145.02,3.26Z"/>
      <path class="cls-2" d="m1879.01,1703.26c-3.44,8.84-30.1,21.4-59.94,30.56-20.39,6.27-42.27,10.94-59.23,11.75-10.59.51-19.26-.48-24.45-3.54,0,0-13.17-34.06,16.09-52.83,29.25-18.78,62.27-22.53,62.27-22.53,4.22,6.03,11.07,9.99,19.53,10.98,5.66.66,12.05-.01,18.86-2.28,5.47-1.82,11.21-4.67,17.06-8.7,0,0,2.67,2.81,5.42,7.41.28.45.55.91.82,1.39,3.83,6.9,7.36,17.08,3.57,27.79Z"/>
      <path class="cls-24" d="m1876.82,1674.04l-1.38,1.43-56.37,58.35c-20.39,6.27-42.27,10.94-59.23,11.75-1.16-10.73-.68-33.47,20.03-49.58,12.76-9.92,34.03-15.36,53.41-18.34,6.65-1.02,13.08-1.76,18.86-2.28,10.4-.94,18.71-1.22,22.48-1.29,1.42-.04,2.2-.04,2.2-.04Z"/>
      <path class="cls-35" d="m1850.06,1635.86c.61,3.48,5.55,70.7,5.55,70.7l39.72-.5,11.38-71.58-56.66,1.39Z"/>
      <path class="cls-2" d="m1903.09,1662.8s13.94,26.98,17.03,33.83c-15.55,45.39-121.78,80.73-132.77,67.1,0,0-19.81-30.67,5.03-54.99,24.84-24.32,60.73-35.59,60.73-35.59,11.83,11.15,42.76,8.1,49.98-10.36Z"/>
      <path class="cls-32" d="m2206.36,1082.14s20.95,94.77-58.83,120.45c-63.44,20.42-172.49,62.09-172.49,62.09l-69.23,385.6c-2.91,8.2-49.03,11.25-54.89,4.66,0,0-16.08-424.48,15.83-471.33,48.98-71.92,115.38-115.89,115.38-115.89,67.19-7.71,165.16-14.92,224.23,14.41Z"/>
      <path class="cls-34" d="m1849.36,1655c-.76-17.07-18.12-418.67,16.07-472.24,8.89-13.92,19.58-27.96,31.8-41.72l2.35,2.09c-12.1,13.64-22.7,27.54-31.5,41.33-33.66,52.74-15.76,466.24-15.58,470.41l-3.14.14Z"/>
      <g>
        <path class="cls-35" d="m1945.18,729.86c32.81-40.25,57.26-16.3,55.8,28.93-1.45,45.23-32.02,242.31-68.61,228.77-36.59-13.54-28.38-207.17,12.81-257.69Z"/>
        <path class="cls-19" d="m1969.59,904.76l-22,153.52c2.15,7.89,14.05,14.58,31.87,19.83,2.81.84,5.78,1.63,8.87,2.39,0,0,0,0,0,0,60.72,14.89,172.45,15.78,220.97-3.57,0,0-3.77-26-19.24-67.7-11.76-31.69-30.28-72.47-59.04-117.8-1.83-13.45,9.53-37.2,20.89-64.42,18.09-43.35,36.19-95.52,1.08-129.05-57.16-54.6-206.68-39.11-216.5,68.9-1.5,69.87,33.08,137.91,33.08,137.91Z"/>
        <path class="cls-38" d="m1971.47,1088.83c1.04-.17,7.18-3.35,16.86-8.34,0,0,0,0,0,0,41.37-21.3,147.45-75.76,196.79-71.35,1.75.15,3.39.18,4.94.09-11.76-31.69-30.28-72.47-59.04-117.8-1.83-13.45,9.53-37.2,20.89-64.42l-64.58-73.31s.23,1.67.63,4.69c3.45,26.41,19.85,156.46,11,177.45-8.11,19.21-92.62,110.72-119.51,142.28-5.84,6.87-8.97,10.89-7.99,10.73Z"/>
        <g>
          <g>
            <path class="cls-35" d="m1987.3,706.94c1.89,13,18.63,47.54,18.63,47.54,0,0,69.26-43.03,66.8-59.98l-11.24-45.44-7.33-29.55-70.57,10.27,2.44,50.48,1.28,26.67Z"/>
            <polygon class="cls-1" points="1986.02 680.26 2035.32 647.26 1983.58 629.78 1986.02 680.26"/>
          </g>
          <path class="cls-35" d="m1921.46,537.61c-3.99,63.21,31.79,115.34,79.91,116.44,48.12,1.1,86.25-49.34,85.16-112.66-1.03-59.66-36.87-106.34-80.12-107.33-43.25-.99-81.2,44.01-84.95,103.55Z"/>
          <path class="cls-25" d="m1980.55,493.21c60.09,77.03,146.65,46.4,126.71.33,0,0-23.2-63.46-93.31-64.49-87.68-1.29-33.4,64.16-33.4,64.16Z"/>
          <path class="cls-44" d="m1997.38,583.85c-2.25-.05-4.42-.58-5.66-2.14-3.05-3.83,5.15-22.56,6.82-26.27.21-.47.76-.67,1.22-.46.47.21.67.76.46,1.22-3.97,8.81-8.78,22.2-7.06,24.36,2.01,2.53,8.94,1.1,11.43.34.49-.15,1,.12,1.15.61.15.49-.12,1-.61,1.15-.63.19-4.29,1.26-7.76,1.18Z"/>
          <path class="cls-44" d="m1984.37,605.58s26.83,8.2,62.22-10.12c-19.46,28.07-44.93,45.59-62.22,10.12Z"/>
          <path class="cls-25" d="m2041.27,549.01c-.11,4.66-2.06,8.39-4.37,8.34s-4.09-3.87-3.98-8.53c.11-4.66,2.06-8.39,4.37-8.34,2.31.05,4.09,3.87,3.98,8.53Z"/>
          <path class="cls-25" d="m1960.76,545.32c-.11,4.66-2.06,8.39-4.37,8.34s-4.09-3.87-3.98-8.53c.11-4.66,2.06-8.39,4.37-8.34,2.31.05,4.09,3.87,3.98,8.53Z"/>
          <path class="cls-25" d="m1980.17,478.65s-10.67,58.6-60.27,62.48c-33.18,2.6,15.09-97.03,46.67-95.09,18.63,1.14,13.6,32.6,13.6,32.6Z"/>
        </g>
        <path class="cls-35" d="m2164.32,721.09s-25.79-28.06-67.3,3.14c-33.98,25.55,23.45,188.32,23.45,188.32l-169.4,160.82,12.98,16.36s202.73-85,228.54-152.18c8.85-42.53-8.35-186.78-28.27-216.47Z"/>
        <path class="cls-35" d="m1967.73,928.92l9.2,158.99-21.87,3.66s-47.31-109.12-45.16-170.75c1.88-54.01,64.4-41.1,57.83,8.1Z"/>
        <path class="cls-35" d="m1979.13,1078.02s23.98,14.34,12.44,24.07c-11.54,9.72-53.12,9.15-41.24-16.73,11.88-25.88,28.8-7.34,28.8-7.34Z"/>
        <path class="cls-35" d="m1950.96,1070.68c-1.87-.37-43.54,29.19-30.98,42.02,12.56,12.83,75.35-25.66,62.94-41.34-12.42-15.68-31.96-.68-31.96-.68Z"/>
      </g>
    </g>
  </g>
</svg>